# xmcd CD database file
#
# Track frame offsets:
#	150
#	15285
#	26312
#	54562
#	63497
#	78207
#	94957
#	109420
#	120745
#	133025
#	162020
#
# Disc length: 2166 seconds
#
# Revision: 0
# Processed by: cddbd v1.5PL3 Copyright (c) Steve Scherf et al.
# Submitted via: CDex 1.51
#
DISCID=8408740b
DTITLE=ORANGE CUBE - WARM SUMMER FOR ANOTHER MILE
DYEAR=2000
DGENRE=Pop
TTITLE0=lipolamo
TTITLE1=period
TTITLE2=air recorder 2100
TTITLE3=soda, weekend
TTITLE4=retro
TTITLE5=see-saw-girl
TTITLE6=old place
TTITLE7=pistachio
TTITLE8=railway, bicycle
TTITLE9=butterfly
TTITLE10=ボーナストラック
EXTD=YEAR: 2000/08/26
EXTT0=
EXTT1=
EXTT2=
EXTT3=
EXTT4=
EXTT5=
EXTT6=
EXTT7=
EXTT8=
EXTT9=
EXTT10=
PLAYORDER=
